<svg width="50" height="51" viewBox="0 0 50 51" fill="none" xmlns="http://www.w3.org/2000/svg">
<path d="M22.9167 4.87565C13.7125 4.87565 6.25 12.2611 6.25 21.3736C6.25 24.484 7.11875 27.3944 8.63125 29.8757M30.2083 23.6257V27.7923M36.4583 23.6257V27.7923M30.2083 6.95899V11.1257M36.4583 6.95899V11.1257M27.0833 14.2507H22.9167M27.0833 20.5007H22.9167M43.75 14.2507H39.5833M43.75 20.5007H39.5833M29.1667 40.2923L28.8958 41.6402C28.6042 43.1131 28.4562 43.8486 28.125 44.4319C27.6146 45.331 26.7881 46.0082 25.8062 46.3319C25.1708 46.5423 24.4167 46.5423 22.9167 46.5423C21.4167 46.5423 20.6625 46.5423 20.0271 46.334C19.0449 46.0097 18.2184 45.3318 17.7083 44.4319C17.3771 43.8486 17.2292 43.1131 16.9375 41.6402L16.6667 40.2923M35.4167 11.1257H31.25C29.2854 11.1257 28.3042 11.1257 27.6937 11.7361C27.0833 12.3465 27.0833 13.3277 27.0833 15.2923V19.459C27.0833 21.4236 27.0833 22.4048 27.6937 23.0152C28.3042 23.6257 29.2854 23.6257 31.25 23.6257H35.4167C37.3812 23.6257 38.3625 23.6257 38.9729 23.0152C39.5833 22.4048 39.5833 21.4236 39.5833 19.459V15.2923C39.5833 13.3277 39.5833 12.3465 38.9729 11.7361C38.3625 11.1257 37.3812 11.1257 35.4167 11.1257ZM13.2979 36.3298C13.1062 35.7548 13.0104 35.4652 13.0208 35.2319C13.0326 34.9906 13.1141 34.758 13.2553 34.562C13.3965 34.366 13.5915 34.2152 13.8167 34.1277C14.0333 34.0423 14.3375 34.0423 14.9417 34.0423H30.8917C31.4979 34.0423 31.8 34.0423 32.0167 34.1257C32.2421 34.2133 32.4373 34.3644 32.5786 34.5608C32.7199 34.7571 32.8011 34.9903 32.8125 35.2319C32.8229 35.4652 32.7271 35.7527 32.5354 36.3298C32.1812 37.3944 32.0042 37.9277 31.7312 38.359C31.1604 39.2603 30.2656 39.9082 29.2312 40.1694C28.7354 40.2923 28.1771 40.2923 27.0583 40.2923H18.775C17.6562 40.2923 17.0958 40.2923 16.6021 40.1673C15.568 39.9067 14.6733 39.2595 14.1021 38.359C13.8292 37.9277 13.6521 37.3944 13.2979 36.3298Z" stroke="black" stroke-width="1.5" stroke-linecap="round" stroke-linejoin="round"/>
</svg>
