<svg width="50" height="51" viewBox="0 0 50 51" fill="none" xmlns="http://www.w3.org/2000/svg">
<path d="M7.50002 28.209C7.49496 23.9371 9.05264 19.8109 11.8795 16.6081C14.7063 13.4052 18.607 11.347 22.8465 10.8213C27.0859 10.2956 31.3712 11.3387 34.8947 13.7541C38.4182 16.1695 40.9365 19.7902 41.975 23.934C43.165 24.504 44.18 25.374 44.925 26.449C44.6412 23.248 43.5902 20.1625 41.8611 17.4538C40.1319 14.7451 37.7755 12.4929 34.9914 10.8881C32.2072 9.28317 29.0774 8.3728 25.8668 8.23404C22.6562 8.09527 19.4595 8.73219 16.5473 10.0909C13.6351 11.4495 11.0931 13.49 9.13671 16.0394C7.18028 18.5888 5.86699 21.5721 5.30804 24.7367C4.74908 27.9012 4.96092 31.1539 5.92562 34.2193C6.89031 37.2846 8.57946 40.0724 10.85 42.3465C11.0858 42.5742 11.4015 42.7002 11.7293 42.6973C12.057 42.6945 12.3705 42.563 12.6023 42.3313C12.8341 42.0995 12.9655 41.786 12.9684 41.4582C12.9712 41.1305 12.8452 40.8147 12.6175 40.579C10.9923 38.9555 9.70358 37.027 8.82539 34.9042C7.9472 32.7815 7.4968 30.5062 7.50002 28.209ZM36.5925 23.524C35.5024 20.8373 33.5125 18.6128 30.9634 17.2313C28.4142 15.8498 25.4642 15.397 22.618 15.9505C19.7719 16.5039 17.2065 18.0292 15.3608 20.2654C13.5151 22.5015 12.5039 25.3095 12.5 28.209C12.5 31.654 13.895 34.7765 16.15 37.0365C16.3854 37.2645 16.701 37.391 17.0288 37.3886C17.3566 37.3862 17.6703 37.2552 17.9024 37.0238C18.1345 36.7923 18.2664 36.479 18.2697 36.1512C18.273 35.8235 18.1474 35.5076 17.92 35.2715C16.8694 34.2162 16.0678 32.9397 15.5735 31.5351C15.0793 30.1304 14.905 28.6331 15.0634 27.1525C15.2217 25.6719 15.7088 24.2454 16.4889 22.977C17.269 21.7087 18.3225 20.6306 19.5725 19.8214C20.8225 19.0122 22.2375 18.4924 23.714 18.2999C25.1906 18.1075 26.6915 18.2472 28.1072 18.7088C29.5228 19.1705 30.8175 19.9425 31.8967 20.9685C32.9759 21.9944 33.8124 23.2485 34.345 24.639C35.0263 24.1438 35.7861 23.7668 36.5925 23.524ZM20 28.209C20 26.8829 20.5268 25.6111 21.4645 24.6735C22.4022 23.7358 23.6739 23.209 25 23.209C26.3261 23.209 27.5979 23.7358 28.5356 24.6735C29.4732 25.6111 30 26.8829 30 28.209C30 29.5351 29.4732 30.8068 28.5356 31.7445C27.5979 32.6822 26.3261 33.209 25 33.209C23.6739 33.209 22.4022 32.6822 21.4645 31.7445C20.5268 30.8068 20 29.5351 20 28.209ZM25 25.709C24.337 25.709 23.7011 25.9724 23.2323 26.4412C22.7634 26.9101 22.5 27.5459 22.5 28.209C22.5 28.872 22.7634 29.5079 23.2323 29.9768C23.7011 30.4456 24.337 30.709 25 30.709C25.6631 30.709 26.2989 30.4456 26.7678 29.9768C27.2366 29.5079 27.5 28.872 27.5 28.209C27.5 27.5459 27.2366 26.9101 26.7678 26.4412C26.2989 25.9724 25.6631 25.709 25 25.709ZM43.75 30.709C43.75 32.0351 43.2232 33.3068 42.2856 34.2445C41.3479 35.1822 40.0761 35.709 38.75 35.709C37.4239 35.709 36.1522 35.1822 35.2145 34.2445C34.2768 33.3068 33.75 32.0351 33.75 30.709C33.75 29.3829 34.2768 28.1111 35.2145 27.1735C36.1522 26.2358 37.4239 25.709 38.75 25.709C40.0761 25.709 41.3479 26.2358 42.2856 27.1735C43.2232 28.1111 43.75 29.3829 43.75 30.709ZM47.5 41.959C47.5 45.0715 45 48.209 38.75 48.209C32.5 48.209 30 45.084 30 41.959C30 40.9644 30.3951 40.0106 31.0984 39.3073C31.8016 38.6041 32.7555 38.209 33.75 38.209H43.75C44.7446 38.209 45.6984 38.6041 46.4017 39.3073C47.1049 40.0106 47.5 40.9644 47.5 41.959Z" fill="black"/>
</svg>
