<svg width="50" height="50" viewBox="0 0 50 50" fill="none" xmlns="http://www.w3.org/2000/svg">
<path d="M22.9167 4.16663C13.7125 4.16663 6.25 11.552 6.25 20.6645C6.25 23.775 7.11875 26.6854 8.63125 29.1666M30.2083 22.9166V27.0833M36.4583 22.9166V27.0833M30.2083 6.24996V10.4166M36.4583 6.24996V10.4166M27.0833 13.5416H22.9167M27.0833 19.7916H22.9167M43.75 13.5416H39.5833M43.75 19.7916H39.5833M29.1667 39.5833L28.8958 40.9312C28.6042 42.4041 28.4562 43.1395 28.125 43.7229C27.6146 44.6219 26.7881 45.2991 25.8062 45.6229C25.1708 45.8333 24.4167 45.8333 22.9167 45.8333C21.4167 45.8333 20.6625 45.8333 20.0271 45.625C19.0449 45.3007 18.2184 44.6227 17.7083 43.7229C17.3771 43.1395 17.2292 42.4041 16.9375 40.9312L16.6667 39.5833M35.4167 10.4166H31.25C29.2854 10.4166 28.3042 10.4166 27.6937 11.027C27.0833 11.6375 27.0833 12.6187 27.0833 14.5833V18.75C27.0833 20.7145 27.0833 21.6958 27.6937 22.3062C28.3042 22.9166 29.2854 22.9166 31.25 22.9166H35.4167C37.3812 22.9166 38.3625 22.9166 38.9729 22.3062C39.5833 21.6958 39.5833 20.7145 39.5833 18.75V14.5833C39.5833 12.6187 39.5833 11.6375 38.9729 11.027C38.3625 10.4166 37.3812 10.4166 35.4167 10.4166ZM13.2979 35.6208C13.1062 35.0458 13.0104 34.7562 13.0208 34.5229C13.0326 34.2816 13.1141 34.0489 13.2553 33.853C13.3965 33.657 13.5915 33.5062 13.8167 33.4187C14.0333 33.3333 14.3375 33.3333 14.9417 33.3333H30.8917C31.4979 33.3333 31.8 33.3333 32.0167 33.4166C32.2421 33.5042 32.4373 33.6554 32.5786 33.8518C32.7199 34.0481 32.8011 34.2812 32.8125 34.5229C32.8229 34.7562 32.7271 35.0437 32.5354 35.6208C32.1812 36.6854 32.0042 37.2187 31.7312 37.65C31.1604 38.5512 30.2656 39.1992 29.2312 39.4604C28.7354 39.5833 28.1771 39.5833 27.0583 39.5833H18.775C17.6562 39.5833 17.0958 39.5833 16.6021 39.4583C15.568 39.1976 14.6733 38.5504 14.1021 37.65C13.8292 37.2187 13.6521 36.6854 13.2979 35.6208Z" stroke="black" stroke-width="1.5" stroke-linecap="round" stroke-linejoin="round"/>
</svg>
