<svg width="50" height="51" viewBox="0 0 50 51" fill="none" xmlns="http://www.w3.org/2000/svg">
<path d="M10.1052 12.6798L5.02292 17.76C4.81816 17.9643 4.69825 18.2385 4.68723 18.5275C4.67622 18.8166 4.77493 19.0991 4.96354 19.3184L24.1292 41.6673C24.2367 41.7931 24.3703 41.8941 24.5206 41.9633C24.6709 42.0326 24.8345 42.0684 25 42.0684C25.1655 42.0684 25.3291 42.0326 25.4794 41.9633C25.6297 41.8941 25.7633 41.7931 25.8708 41.6673L45.0354 19.3184C45.224 19.0991 45.3227 18.8166 45.3117 18.5275C45.3007 18.2385 45.1808 17.9643 44.976 17.76L37.2979 10.084H16.151M5.20833 18.5736H45.3125" stroke="black" stroke-linecap="round" stroke-linejoin="round"/>
<path d="M24.7917 41.334L14.5834 18.4173L16.6667 14.2506M16.6667 14.2506L25 10.3965L33.3334 14.2506M16.6667 14.2506L14.8396 12.5704M25.2084 41.334L35.4167 18.4173L33.3334 14.2506M33.3334 14.2506L37.3 10.6048M12.4896 5.34023L13.6928 9.04232H17.5855L14.4355 11.3309L15.6386 15.034L12.4886 12.7454L9.33859 15.034L10.5417 11.3309L7.3938 9.04232H11.2865L12.4896 5.34023ZM36.2969 32.9444L37.5 36.6465H41.3928L38.2438 38.935L39.4469 42.6371L36.2969 40.3486L33.1469 42.6371L34.3501 38.935L31.2011 36.6465H35.0938L36.2969 32.9444Z" stroke="black" stroke-linecap="round" stroke-linejoin="round"/>
</svg>
