<svg width="33" height="33" viewBox="0 0 33 33" fill="none" xmlns="http://www.w3.org/2000/svg">
<rect x="32.5" y="32.7361" width="32" height="32" transform="rotate(-180 32.5 32.7361)" fill="#2E3192"/>
<path d="M19.8837 24.691C20.1181 24.4566 20.2497 24.1387 20.2497 23.8073C20.2497 23.4758 20.1181 23.1579 19.8837 22.9235L13.6962 16.736L19.8837 10.5485C20.1114 10.3128 20.2374 9.99702 20.2346 9.66927C20.2317 9.34153 20.1003 9.02801 19.8685 8.79625C19.6368 8.56449 19.3232 8.43303 18.9955 8.43018C18.6677 8.42733 18.352 8.55333 18.1162 8.78102L11.045 15.8523C10.8107 16.0867 10.679 16.4046 10.679 16.736C10.679 17.0675 10.8107 17.3854 11.045 17.6198L18.1162 24.691C18.3507 24.9254 18.6685 25.057 19 25.057C19.3314 25.057 19.6493 24.9254 19.8837 24.691Z" fill="#F9FAFB"/>
</svg>
