<svg width="50" height="49" viewBox="0 0 50 49" fill="none" xmlns="http://www.w3.org/2000/svg">
<path d="M16.2498 4.95117H33.7498C40.4165 4.95117 45.8332 10.1151 45.8332 16.4706V33.1539C45.8332 36.2091 44.5601 39.1391 42.294 41.2994C40.028 43.4597 36.9545 44.6734 33.7498 44.6734H16.2498C9.58317 44.6734 4.1665 39.5095 4.1665 33.1539V16.4706C4.1665 13.4155 5.43957 10.4855 7.70563 8.32514C9.97169 6.16482 13.0451 4.95117 16.2498 4.95117ZM15.8332 8.92339C13.844 8.92339 11.9364 9.67669 10.5299 11.0176C9.12335 12.3585 8.33317 14.1771 8.33317 16.0734V33.5512C8.33317 37.5035 11.6873 40.7012 15.8332 40.7012H34.1665C36.1556 40.7012 38.0633 39.9479 39.4698 38.607C40.8763 37.2661 41.6665 35.4475 41.6665 33.5512V16.0734C41.6665 12.121 38.3123 8.92339 34.1665 8.92339H15.8332ZM35.9373 11.9026C36.628 11.9026 37.2904 12.1641 37.7788 12.6297C38.2671 13.0953 38.5415 13.7268 38.5415 14.3852C38.5415 15.0436 38.2671 15.6751 37.7788 16.1407C37.2904 16.6063 36.628 16.8678 35.9373 16.8678C35.2467 16.8678 34.5843 16.6063 34.0959 16.1407C33.6075 15.6751 33.3332 15.0436 33.3332 14.3852C33.3332 13.7268 33.6075 13.0953 34.0959 12.6297C34.5843 12.1641 35.2467 11.9026 35.9373 11.9026ZM24.9998 14.8817C27.7625 14.8817 30.412 15.928 32.3655 17.7903C34.319 19.6527 35.4165 22.1785 35.4165 24.8123C35.4165 27.446 34.319 29.9719 32.3655 31.8342C30.412 33.6966 27.7625 34.7428 24.9998 34.7428C22.2372 34.7428 19.5876 33.6966 17.6341 31.8342C15.6806 29.9719 14.5832 27.446 14.5832 24.8123C14.5832 22.1785 15.6806 19.6527 17.6341 17.7903C19.5876 15.928 22.2372 14.8817 24.9998 14.8817ZM24.9998 18.8539C23.3422 18.8539 21.7525 19.4817 20.5804 20.5991C19.4083 21.7165 18.7498 23.232 18.7498 24.8123C18.7498 26.3925 19.4083 27.908 20.5804 29.0255C21.7525 30.1429 23.3422 30.7706 24.9998 30.7706C26.6574 30.7706 28.2472 30.1429 29.4193 29.0255C30.5914 27.908 31.2498 26.3925 31.2498 24.8123C31.2498 23.232 30.5914 21.7165 29.4193 20.5991C28.2472 19.4817 26.6574 18.8539 24.9998 18.8539Z" fill="#F9FAFB"/>
</svg>
