<svg width="50" height="49" viewBox="0 0 50 49" fill="none" xmlns="http://www.w3.org/2000/svg">
<path d="M39.5833 6.9375C40.6884 6.9375 41.7482 7.356 42.5296 8.10094C43.311 8.84587 43.75 9.85622 43.75 10.9097V38.7153C43.75 39.7688 43.311 40.7791 42.5296 41.5241C41.7482 42.269 40.6884 42.6875 39.5833 42.6875H10.4167C9.3116 42.6875 8.25179 42.269 7.47039 41.5241C6.68899 40.7791 6.25 39.7688 6.25 38.7153V10.9097C6.25 9.85622 6.68899 8.84587 7.47039 8.10094C8.25179 7.356 9.3116 6.9375 10.4167 6.9375H39.5833ZM38.5417 37.7222V27.1958C38.5417 25.4786 37.8261 23.8318 36.5524 22.6175C35.2787 21.4033 33.5513 20.7211 31.75 20.7211C29.9792 20.7211 27.9167 21.7539 26.9167 23.3031V21.0985H21.1042V37.7222H26.9167V27.9307C26.9167 26.4014 28.2083 25.1501 29.8125 25.1501C30.586 25.1501 31.3279 25.4431 31.8749 25.9645C32.4219 26.486 32.7292 27.1932 32.7292 27.9307V37.7222H38.5417ZM14.3333 17.9803C15.2616 17.9803 16.1518 17.6287 16.8082 17.003C17.4646 16.3772 17.8333 15.5285 17.8333 14.6436C17.8333 12.7965 16.2708 11.2871 14.3333 11.2871C13.3996 11.2871 12.504 11.6407 11.8437 12.2702C11.1834 12.8997 10.8125 13.7534 10.8125 14.6436C10.8125 16.4907 12.3958 17.9803 14.3333 17.9803ZM17.2292 37.7222V21.0985H11.4583V37.7222H17.2292Z" fill="#F9FAFB"/>
</svg>
