<svg width="33" height="33" viewBox="0 0 33 33" fill="none" xmlns="http://www.w3.org/2000/svg">
<rect x="0.5" y="0.736084" width="32" height="32" fill="#2E3192"/>
<path d="M13.1162 8.78114C12.8819 9.01555 12.7502 9.33344 12.7502 9.66489C12.7502 9.99635 12.8819 10.3142 13.1162 10.5486L19.3037 16.7361L13.1162 22.9236C12.8885 23.1594 12.7625 23.4752 12.7654 23.8029C12.7682 24.1306 12.8997 24.4442 13.1315 24.6759C13.3632 24.9077 13.6767 25.0391 14.0045 25.042C14.3322 25.0448 14.648 24.9188 14.8837 24.6911L21.955 17.6199C22.1893 17.3855 22.321 17.0676 22.321 16.7361C22.321 16.4047 22.1893 16.0868 21.955 15.8524L14.8837 8.78114C14.6493 8.54681 14.3314 8.41516 14 8.41516C13.6685 8.41516 13.3506 8.54681 13.1162 8.78114Z" fill="#F9FAFB"/>
</svg>
